<svg width="24" height="25" viewBox="0 0 24 25" fill="none" xmlns="http://www.w3.org/2000/svg">
<path d="M22 12.75C22 18.2725 17.5225 22.75 12 22.75C6.4775 22.75 2 18.2725 2 12.75C2 7.2275 6.4775 2.75 12 2.75C17.5225 2.75 22 7.2275 22 12.75Z" fill="url(#paint0_linear_59_2704)"/>
<path opacity="0.05" d="M16.5962 15.2247L14.1217 12.7497L16.5967 10.2747C16.9872 9.88423 16.9872 9.25123 16.5967 8.86073L15.8897 8.15373C15.4992 7.76323 14.8662 7.76323 14.4757 8.15373L12.0002 10.6282L9.5252 8.15323C9.1347 7.76273 8.5017 7.76273 8.1112 8.15323L7.4042 8.86023C7.0137 9.25073 7.0137 9.88373 7.4042 10.2742L9.8792 12.7492L7.4042 15.2242C7.0137 15.6147 7.0137 16.2477 7.4042 16.6382L8.1112 17.3452C8.5017 17.7357 9.1347 17.7357 9.5252 17.3452L12.0002 14.8702L14.4752 17.3452C14.8657 17.7357 15.4987 17.7357 15.8892 17.3452L16.5962 16.6382C16.9867 16.2482 16.9867 15.6152 16.5962 15.2247Z" fill="black"/>
<path opacity="0.07" d="M16.4201 15.4021L13.7686 12.7506L16.4201 10.0991C16.7131 9.80608 16.7131 9.33108 16.4201 9.03858L15.7131 8.33158C15.4201 8.03858 14.9451 8.03858 14.6526 8.33158L12.0006 10.9826L9.34908 8.33108C9.05608 8.03808 8.58108 8.03808 8.28858 8.33108L7.58158 9.03808C7.28858 9.33108 7.28858 9.80608 7.58158 10.0986L10.2326 12.7506L7.58108 15.4021C7.28808 15.6951 7.28808 16.1701 7.58108 16.4626L8.28808 17.1696C8.58108 17.4626 9.05608 17.4626 9.34858 17.1696L12.0006 14.5186L14.6521 17.1701C14.9451 17.4631 15.4201 17.4631 15.7126 17.1701L16.4196 16.4631C16.7131 16.1701 16.7131 15.6951 16.4201 15.4021Z" fill="black"/>
<path d="M15.536 8.50795L16.243 9.21495C16.4385 9.41045 16.4385 9.72695 16.243 9.92195L9.17195 16.993C8.97645 17.1885 8.65995 17.1885 8.46495 16.993L7.75795 16.286C7.56245 16.0905 7.56245 15.774 7.75795 15.579L14.829 8.50795C15.024 8.31245 15.341 8.31245 15.536 8.50795Z" fill="white"/>
<path d="M16.243 16.286L15.536 16.993C15.3405 17.1885 15.024 17.1885 14.829 16.993L7.75795 9.92195C7.56245 9.72645 7.56245 9.40995 7.75795 9.21495L8.46495 8.50795C8.66045 8.31245 8.97695 8.31245 9.17195 8.50795L16.243 15.579C16.4385 15.774 16.4385 16.091 16.243 16.286Z" fill="white"/>
<defs>
<linearGradient id="paint0_linear_59_2704" x1="4.929" y1="5.679" x2="19.071" y2="19.821" gradientUnits="userSpaceOnUse">
<stop stop-color="#F44F5A"/>
<stop offset="0.443" stop-color="#EE3D4A"/>
<stop offset="1" stop-color="#E52030"/>
</linearGradient>
</defs>
</svg>
